<svg width="47" height="47" viewBox="0 0 47 47" fill="none" xmlns="http://www.w3.org/2000/svg">
<path d="M24.969 5.3855V8.81258H28.8367C29.5241 8.81258 30.1958 9.02016 30.7637 9.40596L34.087 11.6659C34.1692 11.7207 34.2606 11.7488 34.3612 11.7501H42.3942C42.7838 11.7501 43.1574 11.9048 43.4328 12.1803C43.7082 12.4557 43.863 12.8293 43.863 13.2188C43.863 13.6084 43.7082 13.9819 43.4328 14.2574C43.1574 14.5328 42.7838 14.6876 42.3942 14.6876H39.304L45.8957 29.7276C46.0276 30.0283 46.0549 30.3646 45.9733 30.6826C45.8916 31.0007 45.7057 31.2822 45.4453 31.4822C45.2495 31.6272 45.0471 31.7616 44.8382 31.8857C44.3425 32.1839 43.8254 32.445 43.2912 32.667C41.5198 33.4078 39.6181 33.7866 37.6982 33.7813C35.7787 33.7897 33.8772 33.4114 32.1071 32.669C31.5728 32.4463 31.0557 32.1845 30.56 31.8857C30.3517 31.7662 30.151 31.6341 29.9588 31.4901L29.949 31.4822C29.6886 31.2822 29.5027 31.0007 29.4211 30.6826C29.3394 30.3646 29.3667 30.0283 29.4986 29.7276L36.0943 14.6876H34.3592C33.6718 14.6876 33.0001 14.48 32.4322 14.0942L29.1089 11.8343C29.028 11.7795 28.9325 11.7502 28.8347 11.7501H24.969V40.1459H33.756C34.1456 40.1459 34.5192 40.3007 34.7946 40.5761C35.07 40.8515 35.2248 41.2251 35.2248 41.6147C35.2248 42.0042 35.07 42.3778 34.7946 42.6532C34.5192 42.9287 34.1456 43.0834 33.756 43.0834H13.2445C12.8549 43.0834 12.4813 42.9287 12.2059 42.6532C11.9304 42.3778 11.7757 42.0042 11.7757 41.6147C11.7757 41.2251 11.9304 40.8515 12.2059 40.5761C12.4813 40.3007 12.8549 40.1459 13.2445 40.1459H22.0315V11.7501H18.1638C18.066 11.7502 17.9706 11.7795 17.8896 11.8343L14.5683 14.0942C14.0004 14.48 13.3287 14.6876 12.6413 14.6876H10.9062L17.5019 29.7276C17.6295 30.0198 17.6586 30.3456 17.5848 30.6557C17.511 30.9659 17.3382 31.2437 17.0926 31.447C16.9359 31.5743 16.7792 31.6937 16.4855 31.8837C15.9905 32.2049 15.4721 32.4884 14.9345 32.7317C13.1662 33.5366 11.2452 33.9507 9.30233 33.9458C7.35948 33.9507 5.43843 33.5366 3.67016 32.7317C3.1326 32.4884 2.61414 32.2049 2.11916 31.8837C1.91071 31.7491 1.70878 31.6047 1.51404 31.4509C1.26986 31.2457 1.09809 30.9674 1.02405 30.6571C0.950007 30.3468 0.977609 30.021 1.10279 29.7276L7.69649 14.6876H4.6082C4.21867 14.6876 3.84508 14.5328 3.56964 14.2574C3.2942 13.9819 3.13945 13.6084 3.13945 13.2188C3.13945 12.8293 3.2942 12.4557 3.56964 12.1803C3.84508 11.9048 4.21867 11.7501 4.6082 11.7501H12.6413C12.7405 11.7501 12.8326 11.722 12.9174 11.6659L16.2368 9.40596C16.8047 9.01821 17.4784 8.81258 18.1657 8.81258H22.0315V5.3855C22.0315 4.99596 22.1862 4.62238 22.4617 4.34693C22.7371 4.07149 23.1107 3.91675 23.5002 3.91675C23.8898 3.91675 24.2634 4.07149 24.5388 4.34693C24.8142 4.62238 24.969 4.99596 24.969 5.3855ZM4.29487 29.7628C5.83575 30.5844 7.5561 31.0117 9.30233 31.0064C11.0486 31.0117 12.7689 30.5844 14.3098 29.7628L9.30233 18.3457L4.29487 29.7628ZM32.7103 29.7158C32.8709 29.7942 33.0504 29.8764 33.2488 29.9626C34.2867 30.3993 35.8045 30.8438 37.6982 30.8438C39.4245 30.8485 41.1296 30.4628 42.686 29.7158L37.6982 18.3438L32.7103 29.7158Z" fill="white"/>
</svg>
