<svg width="33" height="33" viewBox="0 0 33 33" fill="none" xmlns="http://www.w3.org/2000/svg">
<path d="M18.0467 1.54688V4.125H20.0782C20.7052 4.125 21.3219 4.29 21.8664 4.60144L24.5271 6.11944C24.6068 6.16481 24.6921 6.1875 24.7828 6.1875H29.3904C29.8007 6.1875 30.1941 6.35047 30.4842 6.64057C30.7743 6.93066 30.9373 7.32412 30.9373 7.73438C30.9373 8.14463 30.7743 8.53809 30.4842 8.82818C30.1941 9.11828 29.8007 9.28125 29.3904 9.28125H28.5097L32.8637 18.9585C32.9923 19.2448 33.0309 19.5635 32.9741 19.8722C32.9174 20.1809 32.7681 20.465 32.5461 20.6869L31.4529 19.5938L32.544 20.6889L32.5419 20.6931L32.5378 20.6972L32.5254 20.7096L32.5131 20.7199L32.4924 20.7405L32.3996 20.823C31.9637 21.1874 31.4921 21.4967 30.9847 21.7511C30.0216 22.2337 28.6273 22.6875 26.8123 22.6875C25.3676 22.7044 23.9388 22.3838 22.6399 21.7511C22.1335 21.4983 21.6586 21.1868 21.225 20.823L21.1322 20.7405L21.0992 20.7096L21.0868 20.6972L21.0786 20.6889V20.6869C20.8565 20.465 20.7072 20.1809 20.6505 19.8722C20.5937 19.5635 20.6323 19.2448 20.7609 18.9585L25.1169 9.28125H24.7828C24.1537 9.28125 23.5371 9.11831 22.9926 8.80481L20.3319 7.28681C20.2541 7.24226 20.1659 7.2188 20.0762 7.21875H18.0467V26.8125H23.2029C23.6132 26.8125 24.0066 26.9755 24.2967 27.2656C24.5868 27.5557 24.7498 27.9491 24.7498 28.3594C24.7498 28.7696 24.5868 29.1631 24.2967 29.4532C24.0066 29.7433 23.6132 29.9062 23.2029 29.9062H9.79668C9.38642 29.9062 8.99297 29.7433 8.70288 29.4532C8.41278 29.1631 8.24981 28.7696 8.24981 28.3594C8.24981 27.9491 8.41278 27.5557 8.70288 27.2656C8.99297 26.9755 9.38642 26.8125 9.79668 26.8125H14.9529V7.21875H12.9234C12.8337 7.2188 12.7456 7.24226 12.6677 7.28681L10.0091 8.80688C9.46256 9.11625 8.84587 9.28125 8.21681 9.28125H7.88268L12.2387 18.9585C12.3673 19.2448 12.4059 19.5635 12.3491 19.8722C12.2924 20.1809 12.1431 20.465 11.9211 20.6869L10.8279 19.5938L11.919 20.6889L11.9169 20.6931L11.9128 20.6972L11.9004 20.7096L11.8674 20.7405L11.7746 20.823C11.3387 21.1874 10.8671 21.4967 10.3597 21.7511C9.39656 22.2337 8.00231 22.6875 6.18731 22.6875C4.74257 22.7044 3.31384 22.3838 2.01487 21.7511C1.50849 21.4983 1.0336 21.1868 0.599995 20.823L0.507182 20.7405L0.474182 20.7096L0.461807 20.6972L0.453557 20.6889V20.6869C0.231512 20.465 0.0822097 20.1809 0.0254778 19.8722C-0.031254 19.5635 0.00726958 19.2448 0.135932 18.9585L4.49193 9.28125H3.60918C3.19893 9.28125 2.80547 9.11828 2.51538 8.82818C2.22528 8.53809 2.06231 8.14463 2.06231 7.73438C2.06231 7.32412 2.22528 6.93066 2.51538 6.64057C2.80547 6.35047 3.19893 6.1875 3.60918 6.1875H8.21681C8.30723 6.18781 8.39614 6.16434 8.47462 6.11944L11.1311 4.59938C11.6777 4.29 12.2944 4.125 12.9234 4.125H14.9529V1.54688C14.9529 1.13662 15.1159 0.743165 15.406 0.453069C15.6961 0.162974 16.0895 0 16.4998 0C16.9101 0 17.3035 0.162974 17.5936 0.453069C17.8837 0.743165 18.0467 1.13662 18.0467 1.54688ZM24.1207 19.0307C24.7086 19.3091 25.6016 19.5938 26.8123 19.5938C28.023 19.5938 28.9161 19.3091 29.5039 19.0307L26.8123 13.0494L24.1207 19.0307ZM3.49574 19.0307C4.08356 19.3091 4.97662 19.5938 6.18731 19.5938C7.39799 19.5938 8.29106 19.3091 8.87887 19.0307L6.18731 13.0494L3.49574 19.0307Z" fill="#958230"/>
</svg>
